
<svg xmlns="http://www.w3.org/2000/svg" version="1.1" xmlns:xlink="http://www.w3.org/1999/xlink" preserveAspectRatio="none">
<defs>

<g id="Symbol_8_0_Layer0_0_FILL">
<path fill="#FFE0B1" stroke="none" d="
M -8.6 22.15
Q -5.4974609375 25.0546875 -1 25.9 3.7619140625 18.0072265625 5.6 8.75
L -7.9 6.3
Q -9.1033203125 14.225 -8.6 22.15 Z"/>

<path fill="#25A85C" stroke="none" d="
M 6.1 8.85
L 6.6 5.9 -8.85 3.1
Q -10.15 3.7 -9.35 6.05
L -7.9 6.3 5.6 8.75 6.1 8.85 Z"/>

<path fill="#2ECC71" stroke="none" d="
M 0.95 -6.8
L 0.9 -6.8
Q 0.3177734375 -6.9091796875 -0.25 -6.95 -5.323046875 -7.0373046875 -8.85 3.1
L 6.6 5.9 7.25 2.35
Q 7.85 -0.85 6 -3.6 4.15 -6.25 0.95 -6.8 Z"/>
</g>

<g id="Symbol_9_0_Layer0_0_FILL">
<path fill="#E7CBA0" stroke="none" d="
M 0.65 -9
Q 3.1 -6.8 4.9 -1.85
L 5.1 -1.05 5.1 -1.1
Q 8.2 -5.45 0.65 -9
M -6.75 -2.65
Q -5.5 -2.75 -3.8 -3.35 -2.05 -3.95 -0.95 -4.7 0.15 -5.4 0.05 -5.85 0 -6.25 -1.3 -6.15 -2.5 -6 -4.25 -5.45 -5.95 -4.85 -7.05 -4.15 -8.2 -3.45 -8.15 -3 -8.05 -2.55 -6.75 -2.65 Z"/>

<path fill="#FFE0B1" stroke="none" d="
M 4.9 -1.85
Q 3.1 -6.8 0.65 -9
L -9 -6.45
Q -10.2 -6.15 -9.95 -5.05
L -9.8 -4.5
Q -7.1 7.6 -0.2 5.8 2.25 5.2 4.65 3.95 6.25 3.15 5.95 1.95
L 5.9 1.7
Q 5.5 0.25 5.1 -1.1
L 5.1 -1.05 4.9 -1.85
M -3.8 -3.35
Q -5.5 -2.75 -6.75 -2.65 -8.05 -2.55 -8.15 -3 -8.2 -3.45 -7.05 -4.15 -5.95 -4.85 -4.25 -5.45 -2.5 -6 -1.3 -6.15 0 -6.25 0.05 -5.85 0.15 -5.4 -0.95 -4.7 -2.05 -3.95 -3.8 -3.35 Z"/>
</g>

<g id="Symbol_18_0_Layer0_0_FILL">
<path fill="#B8824D" stroke="none" d="
M 20 10
L 20 5.9 -19 5.9 -19 10 20 10 Z"/>

<path fill="#2ECC71" stroke="none" d="
M 20 -21
L -19 -21 -19 5.9 20 5.9 20 -21 Z"/>
</g>

<g id="Symbol_17_0_Layer0_0_FILL">
<path fill="#D7BD93" stroke="none" d="
M -7.35 1.7
Q -4.4 3.65 -0.2 3.65 4 3.65 6.95 1.7 8.7 0.55 9.4 -0.9
L -9.8 -0.9
Q -9.1 0.55 -7.35 1.7 Z"/>

<path fill="#FFE0B1" stroke="none" d="
M 19.15 -5.45
Q 20.7 -15.55 19.1 -26.1 18.45 -30.55 14 -30.55
L -16.35 -30.55
Q -20.75 -30.55 -21.45 -26 -22.95 -15.7 -21.45 -5.4 -20.75 -0.9 -16.35 -0.9
L -9.8 -0.9 9.4 -0.9 14 -0.9
Q 18.45 -0.9 19.15 -5.45 Z"/>
</g>

<g id="Symbol_17_0_Layer0_1_FILL">
<path fill="#C48A51" stroke="none" d="
M -15.7 -41.45
L -18.6 -36.7
Q 3.15 -38.2 23.15 -53.7 -2.1 -48.35 -15.7 -41.45
M 0.7 -2.7
Q 13 -3 21.15 -14.55 24.3 -19.05 24.15 -28 24.1 -31.3 23.65 -32.65 23.55 -32.95 23.45 -33.2 22.7294921875 -35.3611328125 22.6 -35.9 22.8978515625 -34.481640625 22.75 -33.25 19.3 -6.15 -0.7 -2.8 -19.85 -6.7 -23.2 -33.2 -25.6 -20.2 -21.6 -14.5 -13.45 -2.95 -1.15 -2.65 -0.8 -2.6 -0.1 -2.7 0.4 -2.65 0.7 -2.7 Z"/>

<path fill="#B8824D" stroke="none" d="
M 22.75 -33.25
Q 22.8978515625 -34.481640625 22.6 -35.9
L 22.6 -36
Q 20.8 -43.35 23.15 -53.7 3.15 -38.2 -18.6 -36.7
L -23.2 -33.2
Q -19.85 -6.7 -0.7 -2.8 19.3 -6.15 22.75 -33.25 Z"/>
</g>

<g id="Symbol_16_0_Layer0_0_FILL">
<path fill="#D7BD93" stroke="none" d="
M 0.25 3.7
Q 4.45 3.7 7.4 1.75 9.15 0.6 9.85 -0.85
L -9.35 -0.85
Q -8.65 0.6 -6.9 1.75 -3.95 3.7 0.25 3.7 Z"/>

<path fill="#FFE0B1" stroke="none" d="
M 19.55 -26.05
Q 18.9 -30.5 14.45 -30.5
L -15.9 -30.5
Q -20.3 -30.5 -21 -25.95 -22.5 -15.65 -21 -5.35 -20.3 -0.85 -15.9 -0.85
L -9.35 -0.85 9.85 -0.85 14.45 -0.85
Q 18.9 -0.85 19.6 -5.4 21.15 -15.5 19.55 -26.05 Z"/>
</g>

<g id="Symbol_16_0_Layer0_1_FILL">
<path fill="#FFFFFF" stroke="none" d="
M -3.2 -14.8
Q -3.2 -16.35 -4.3 -17.5 -5.3 -18.6 -6.85 -18.6 -8.4 -18.6 -9.5 -17.5 -10.5 -16.35 -10.5 -14.8 -10.5 -13.25 -9.5 -12.15 -8.4 -11 -6.85 -11 -5.3 -11 -4.3 -12.15 -3.2 -13.25 -3.2 -14.8
M 3.9 -8.95
L 3.85 -11.35
Q 2.95 -11.65 1.9 -11.65 -0.55 -11.65 -2.35 -9.85 -2.8 -9.45 -3.1 -8.95
L 3.9 -8.95
M 15.4 -14.8
Q 15.4 -16.35 14.3 -17.5 13.3 -18.6 11.75 -18.6 10.2 -18.6 9.1 -17.5 8.1 -16.35 8.1 -14.8 8.1 -13.25 9.1 -12.15 10.2 -11 11.75 -11 13.3 -11 14.3 -12.15 15.4 -13.25 15.4 -14.8 Z"/>

<path fill="#B8824D" stroke="none" d="
M -4.05 -23.6
Q -4.35 -23.9 -4.75 -23.95 -7.1 -24.35 -9.1 -22.75 -10.4 -21.75 -11 -20.3 -11.15 -19.9 -11 -19.5 -10.85 -19.1 -10.45 -19 -10.05 -18.8 -9.7 -19 -9.3 -19.15 -9.15 -19.5 -8.75 -20.5 -7.8 -21.2 -6.5 -22.2 -4.95 -22 -4.65 -21.95 -4.25 -22.2 -3.95 -22.45 -3.85 -22.85 -3.8 -23.3 -4.05 -23.6
M 13.85 -18.45
Q 14.25 -18.3 14.6 -18.5 14.95 -18.6 15.1 -19 15.3 -19.45 15.15 -19.8 14.55 -21.25 13.2 -22.25 11.25 -23.85 8.9 -23.45 8.5 -23.4 8.25 -23.1 8 -22.8 8.05 -22.35 8.15 -21.95 8.45 -21.7 8.75 -21.45 9.2 -21.5 10.7 -21.7 11.95 -20.7 12.85 -20 13.3 -19 13.4 -18.65 13.85 -18.45 Z"/>

<path fill="#7F7058" stroke="none" d="
M 7.35 -8.2
Q 6.9 -9.1 6.15 -9.85
L 6.1 -9.9
Q 5.1 -10.9 3.85 -11.35
L 3.9 -8.95 -3.1 -8.95
Q -3.35 -8.6 -3.55 -8.2 -3.8 -7.75 -3.9 -7.25 -4 -6.9 -3.9 -6.65 -3.8 -6.3 -3.5 -6.15 -3.25 -5.95 -2.95 -5.95
L 6.75 -5.95
Q 7.05 -5.95 7.35 -6.15 7.6 -6.3 7.7 -6.65 7.8 -6.9 7.75 -7.25 7.6 -7.75 7.35 -8.2 Z"/>
</g>

<g id="Symbol_16_0_Layer0_1_MEMBER_0_FILL">
<path fill="#7F7058" stroke="none" d="
M -3.95 -14.8
Q -3.95 -16.1 -4.6 -17.05 -5.2 -17.95 -6.1 -17.95 -7 -17.95 -7.65 -17.05 -8.25 -16.1 -8.25 -14.8 -8.25 -13.5 -7.65 -12.6 -7 -11.65 -6.1 -11.65 -5.2 -11.65 -4.6 -12.6 -3.95 -13.5 -3.95 -14.8
M 12.25 -12.6
Q 12.9 -13.5 12.9 -14.8 12.9 -16.1 12.25 -17.05 11.65 -17.95 10.75 -17.95 9.85 -17.95 9.2 -17.05 8.6 -16.1 8.6 -14.8 8.6 -13.5 9.2 -12.6 9.85 -11.65 10.75 -11.65 11.65 -11.65 12.25 -12.6 Z"/>
</g>

<g id="Symbol_16_0_Layer0_2_FILL">
<path fill="#B8824D" stroke="none" d="
M -15.25 -41.4
L -18.15 -36.65 -22.75 -33.15
Q -25.15 -20.15 -21.5 -7.9 -16.55 -12.55 -15.9 -24.4 -11.15 -42 23.6 -53.65 -1.65 -48.3 -15.25 -41.4 Z"/>

<path fill="#C48A51" stroke="none" d="
M 1.6 -26.15
Q 9.95 -23.75 19.35 -24
L 20.35 -15.9
Q 24.9 -29.4 23.3 -34.9 21.1 -42.55 23.6 -53.65 -11.15 -42 -15.9 -24.4 -8.7 -29.3 1.6 -26.15 Z"/>
</g>

<g id="Symbol_11_0_Layer0_0_FILL">
<path fill="#B8824D" stroke="none" d="
M 8.9 16.15
L 8.9 11.15 -8.7 11.15 -8.7 11.1
Q -10.45 12.05 -11.9 14
L -11.9 16.15 8.9 16.15 Z"/>

<path fill="#2A7DB4" stroke="none" d="
M 8.9 11.15
L 8.95 11.15 8.95 7.75 -8.7 7.75 -8.7 11.1 -8.7 11.15 8.9 11.15 Z"/>

<path fill="#3498DB" stroke="none" d="
M 6.4 -4.55
Q 3.8 -7.1 0.15 -7.1
L 0.1 -7.1
Q -3.55 -7.1 -6.1 -4.55 -8.7 -1.95 -8.7 1.7
L -8.7 7.75 8.95 7.75 8.95 1.7
Q 8.95 -1.95 6.4 -4.55 Z"/>
</g>

<g id="Symbol_10_0_Layer0_0_FILL">
<path fill="#B8824D" stroke="none" d="
M 19.25 9.4
L 19.25 5.35 -19.25 5.35 -19.25 9.4 19.25 9.4 Z"/>

<path fill="#2ECC71" stroke="none" d="
M 19.25 -21.35
L -19.25 -21.35 -19.25 5.35 19.25 5.35 19.25 -21.35 Z"/>
</g>

<g id="Symbol_12_0_Layer0_0_FILL">
<path fill="#D7BD93" stroke="none" d="
M -7.7 3.15
Q -4.75 5.1 -0.55 5.1 3.65 5.1 6.6 3.15 8.35 2 9.05 0.55
L -10.15 0.55
Q -9.45 2 -7.7 3.15 Z"/>

<path fill="#FFE0B1" stroke="none" d="
M 18.8 -4
Q 20.35 -14.1 18.75 -24.65 18.1 -29.1 13.65 -29.1
L -16.7 -29.1
Q -21.1 -29.1 -21.8 -24.55 -23.3 -14.25 -21.8 -3.95 -21.1 0.55 -16.7 0.55
L -10.15 0.55 9.05 0.55 13.65 0.55
Q 18.1 0.55 18.8 -4 Z"/>
</g>

<g id="Symbol_12_0_Layer0_1_FILL">
<path fill="#FFFFFF" stroke="none" d="
M -5.1 -16.1
Q -6.1 -17.2 -7.65 -17.2 -9.2 -17.2 -10.3 -16.1 -11.3 -14.95 -11.3 -13.4 -11.3 -11.85 -10.3 -10.75 -9.2 -9.6 -7.65 -9.6 -6.1 -9.6 -5.1 -10.75 -4 -11.85 -4 -13.4 -4 -14.95 -5.1 -16.1
M 3.05 -5.65
L 3.05 -8.65 -3.8 -8.65
Q -4.1 -8.65 -4.35 -8.45 -4.65 -8.3 -4.75 -7.95 -4.85 -7.7 -4.75 -7.35 -4.65 -6.85 -4.4 -6.4 -4.2 -6 -3.95 -5.65
L 3.05 -5.65
M 13.5 -16.1
Q 12.5 -17.2 10.95 -17.2 9.4 -17.2 8.3 -16.1 7.3 -14.95 7.3 -13.4 7.3 -11.85 8.3 -10.75 9.4 -9.6 10.95 -9.6 12.5 -9.6 13.5 -10.75 14.6 -11.85 14.6 -13.4 14.6 -14.95 13.5 -16.1 Z"/>

<path fill="#B8824D" stroke="none" d="
M -4.65 -21.3
Q -4.3 -21.15 -3.9 -21.3 -3.55 -21.5 -3.35 -21.85 -3.2 -22.25 -3.35 -22.6 -3.55 -23 -3.9 -23.15 -6.1 -24.1 -8.4 -23.1 -9.95 -22.45 -10.9 -21.2 -11.15 -20.9 -11.1 -20.45 -11.05 -20.05 -10.7 -19.8 -10.4 -19.55 -9.95 -19.6 -9.55 -19.65 -9.3 -20 -8.65 -20.85 -7.6 -21.25 -6.1 -21.9 -4.65 -21.3
M 11.2 -19.75
Q 12.25 -19.35 12.9 -18.5 13.15 -18.15 13.6 -18.1 14 -18.05 14.3 -18.3 14.65 -18.55 14.7 -18.95 14.75 -19.4 14.5 -19.7 13.55 -20.95 12 -21.6 9.7 -22.6 7.55 -21.65 7.15 -21.5 7 -21.1 6.8 -20.75 7 -20.35 7.15 -20 7.55 -19.8 7.9 -19.65 8.3 -19.8 9.7 -20.4 11.2 -19.75 Z"/>

<path fill="#7F7058" stroke="none" d="
M 6.5 -6.4
Q 6.75 -6.85 6.9 -7.35 6.95 -7.7 6.85 -7.95 6.75 -8.3 6.5 -8.45 6.2 -8.65 5.9 -8.65
L 3.05 -8.65 3.05 -5.65 -3.95 -5.65
Q -3.65 -5.15 -3.2 -4.75 -1.4 -2.95 1.05 -2.95 3.5 -2.95 5.25 -4.7
L 5.3 -4.75
Q 6.05 -5.5 6.5 -6.4 Z"/>
</g>

<g id="Symbol_12_0_Layer0_1_MEMBER_0_FILL">
<path fill="#7F7058" stroke="none" d="
M 11.45 -11.2
Q 12.1 -12.1 12.1 -13.4 12.1 -14.7 11.45 -15.65 10.85 -16.55 9.95 -16.55 9.05 -16.55 8.4 -15.65 7.8 -14.7 7.8 -13.4 7.8 -12.1 8.4 -11.2 9.05 -10.25 9.95 -10.25 10.85 -10.25 11.45 -11.2 Z"/>
</g>

<g id="Symbol_12_0_Layer0_1_MEMBER_1_FILL">
<path fill="#7F7058" stroke="none" d="
M -5.4 -11.2
Q -4.75 -12.1 -4.75 -13.4 -4.75 -14.7 -5.4 -15.65 -6 -16.55 -6.9 -16.55 -7.8 -16.55 -8.45 -15.65 -9.05 -14.7 -9.05 -13.4 -9.05 -12.1 -8.45 -11.2 -7.8 -10.25 -6.9 -10.25 -6 -10.25 -5.4 -11.2 Z"/>
</g>

<g id="Symbol_12_0_Layer0_2_FILL">
<path fill="#B8824D" stroke="none" d="
M -23.55 -31.75
Q -25.95 -18.75 -22.3 -6.5 -17.35 -11.15 -16.7 -23 -11.95 -40.6 22.8 -52.25 -2.45 -46.9 -16.05 -40
L -18.95 -35.25 -23.55 -31.75 Z"/>

<path fill="#C48A51" stroke="none" d="
M 0.8 -24.75
Q 9.15 -22.35 18.55 -22.6
L 19.55 -14.5
Q 24.1 -28 22.5 -33.5 20.3 -41.15 22.8 -52.25 -11.95 -40.6 -16.7 -23 -9.5 -27.9 0.8 -24.75 Z"/>
</g>

<g id="Symbol_15_0_Layer0_0_FILL">
<path fill="#D7BD93" stroke="none" d="
M 0.25 3.65
Q 4.45 3.65 7.4 1.7 9.15 0.55 9.85 -0.9
L -9.35 -0.9
Q -8.65 0.55 -6.9 1.7 -3.95 3.65 0.25 3.65 Z"/>

<path fill="#FFE0B1" stroke="none" d="
M 19.55 -26.1
Q 18.9 -30.55 14.45 -30.55
L -15.9 -30.55
Q -20.3 -30.55 -21 -26 -22.5 -15.7 -21 -5.4 -20.3 -0.9 -15.9 -0.9
L -9.35 -0.9 9.85 -0.9 14.45 -0.9
Q 18.9 -0.9 19.6 -5.45 21.15 -15.55 19.55 -26.1 Z"/>
</g>

<g id="Symbol_15_0_Layer0_1_FILL">
<path fill="#FFFFFF" stroke="none" d="
M -3.2 -14.85
Q -3.2 -16.4 -4.3 -17.55 -5.3 -18.65 -6.85 -18.65 -8.4 -18.65 -9.5 -17.55 -10.5 -16.4 -10.5 -14.85 -10.5 -13.3 -9.5 -12.2 -8.4 -11.05 -6.85 -11.05 -5.3 -11.05 -4.3 -12.2 -3.2 -13.3 -3.2 -14.85
M 14.3 -17.55
Q 13.3 -18.65 11.75 -18.65 10.2 -18.65 9.1 -17.55 8.1 -16.4 8.1 -14.85 8.1 -13.3 9.1 -12.2 10.2 -11.05 11.75 -11.05 13.3 -11.05 14.3 -12.2 15.4 -13.3 15.4 -14.85 15.4 -16.4 14.3 -17.55 Z"/>

<path fill="#B8824D" stroke="none" d="
M -3.4 -20.9
Q -3.2 -20.6 -2.75 -20.55 -2.35 -20.5 -2 -20.75 -1.7 -21 -1.6 -21.4 -1.6 -21.8 -1.85 -22.15 -3.3 -24.1 -5.75 -24.35 -7.4 -24.55 -8.85 -23.95 -9.2 -23.8 -9.4 -23.4 -9.6 -23 -9.35 -22.65 -9.25 -22.3 -8.8 -22.1 -8.5 -21.9 -8.05 -22.15 -7.1 -22.5 -6 -22.35 -4.35 -22.15 -3.4 -20.9
M 13.45 -22.7
Q 12.05 -23.3 10.35 -23.1 7.85 -22.85 6.5 -20.9 6.2 -20.55 6.25 -20.2 6.3 -19.8 6.65 -19.55 6.95 -19.3 7.4 -19.3 7.8 -19.35 8.05 -19.7 8.95 -20.9 10.6 -21.1 11.7 -21.25 12.65 -20.9 13.1 -20.65 13.45 -20.9 13.85 -21.05 14 -21.4 14.2 -21.75 14 -22.15 13.8 -22.55 13.45 -22.7 Z"/>

<path fill="#7F7058" stroke="none" d="
M 7.65 -6.7
Q 8.05 -6.85 8.25 -7.2 8.4 -7.55 8.3 -7.95 8.15 -8.35 7.8 -8.5 7.45 -8.7 7.05 -8.6 1.7 -6.9 -2.25 -9.45 -2.6 -9.7 -3 -9.6 -3.4 -9.55 -3.6 -9.2 -3.85 -8.85 -3.75 -8.45 -3.7 -8.05 -3.35 -7.8 1.3 -4.7 7.65 -6.7 Z"/>
</g>

<g id="Symbol_15_0_Layer0_1_MEMBER_0_FILL">
<path fill="#7F7058" stroke="none" d="
M -6.1 -11.7
Q -5.2 -11.7 -4.6 -12.65 -3.95 -13.55 -3.95 -14.85 -3.95 -16.15 -4.6 -17.1 -5.2 -18 -6.1 -18 -7 -18 -7.65 -17.1 -8.25 -16.15 -8.25 -14.85 -8.25 -13.55 -7.65 -12.65 -7 -11.7 -6.1 -11.7
M 9.2 -17.1
Q 8.6 -16.15 8.6 -14.85 8.6 -13.55 9.2 -12.65 9.85 -11.7 10.75 -11.7 11.65 -11.7 12.25 -12.65 12.9 -13.55 12.9 -14.85 12.9 -16.15 12.25 -17.1 11.65 -18 10.75 -18 9.85 -18 9.2 -17.1 Z"/>
</g>

<g id="Symbol_15_0_Layer0_2_FILL">
<path fill="#B8824D" stroke="none" d="
M -15.25 -41.45
L -18.15 -36.7 -22.75 -33.2
Q -25.15 -20.2 -21.5 -7.95 -16.55 -12.6 -15.9 -24.45 -11.15 -42.05 23.6 -53.7 -1.65 -48.35 -15.25 -41.45 Z"/>

<path fill="#C48A51" stroke="none" d="
M 1.6 -26.2
Q 9.95 -23.8 19.35 -24.05
L 20.35 -15.95
Q 24.9 -29.45 23.3 -34.95 21.1 -42.6 23.6 -53.7 -11.15 -42.05 -15.9 -24.45 -8.7 -29.35 1.6 -26.2 Z"/>
</g>
</defs>

<g id="legLeft_FL" transform="matrix( 1, 0, 0, 1, 30.75,93.85) ">
<g transform="matrix( 1.0071868896484375, 0, 0, 0.9892425537109375, 0,0) ">
<use xlink:href="#Symbol_11_0_Layer0_0_FILL"/>
</g>
</g>

<g id="legRight_FL" transform="matrix( -1, 0, 0, 1, 51.9,93.85) ">
<g transform="matrix( 1.0071868896484375, 0, 0, 0.9892425537109375, 0,0) ">
<use xlink:href="#Symbol_11_0_Layer0_0_FILL"/>
</g>
</g>

<g id="body_FL" transform="matrix( 1, 0, 0, 1, 41.35,85.15) ">
<g transform="matrix( 1.0129852294921875, 0, 0, 1.0081329345703125, 0.5,0.5) ">
<use xlink:href="#Symbol_10_0_Layer0_0_FILL"/>
</g>
</g>

<g id="armLeft_FL_FL" transform="matrix( 0.9659271240234375, 0.2588043212890625, -0.233551025390625, 0.8716888427734375, 23.55,70.35) ">
<g transform="matrix( 0.9970703125, 0, 0, 1.006103515625, -0.4,-0.05) ">
<use xlink:href="#Symbol_8_0_Layer0_0_FILL"/>
</g>
</g>

<g id="handLeft_FL_FL" transform="matrix( 0.9659271240234375, 0.2588043212890625, -0.2588043212890625, 0.9659271240234375, 18.3,95.05) ">
<g transform="matrix( 1, 0, 0, 1, 0,0) ">
<use xlink:href="#Symbol_9_0_Layer0_0_FILL"/>
</g>
</g>

<g id="armRight_FL_FL_FL" transform="matrix( -0.9659271240234375, 0.2588043212890625, 0.233551025390625, 0.8716888427734375, 57.6,69.35) ">
<g transform="matrix( 0.9970703125, 0, 0, 1.006103515625, -0.4,-0.05) ">
<use xlink:href="#Symbol_8_0_Layer0_0_FILL"/>
</g>
</g>

<g id="handRight_FL_FL_FL" transform="matrix( -0.9659271240234375, 0.2588043212890625, 0.2588043212890625, 0.9659271240234375, 62.9,94.5) ">
<g transform="matrix( 1, 0, 0, 1, 0,0) ">
<use xlink:href="#Symbol_9_0_Layer0_0_FILL"/>
</g>
</g>

<g id="head_FL" transform="matrix( 1, 0, 0, 1, 41.25,66.15) ">
<g transform="matrix( 1, 0, 0, 1, 0,0) ">
<use xlink:href="#Symbol_12_0_Layer0_0_FILL"/>
</g>

<g transform="matrix( 1, 0, 0, 1, 0,0) ">
<use xlink:href="#Symbol_12_0_Layer0_1_FILL"/>
</g>

<g transform="matrix( 1, 0, 0, 1, 0,0) ">
<use xlink:href="#Symbol_12_0_Layer0_1_MEMBER_0_FILL"/>
</g>

<g transform="matrix( 1, 0, 0, 1, 0,0) ">
<use xlink:href="#Symbol_12_0_Layer0_1_MEMBER_1_FILL"/>
</g>

<g transform="matrix( 1, 0, 0, 1, 0,0) ">
<use xlink:href="#Symbol_12_0_Layer0_2_FILL"/>
</g>
</g>

</svg>
